# xmcd CD database file
#
# Track frame offsets:
#	150
#	19140
#	37887
#	55452
#	69752
#	88800
#	109422
#	122837
#	138885
#	159660
#	173810
#	189235
#	205195
#	223185
#	237582
#	251300
#	264885
#	280042
#	298630
#	311105
#	312125
#	312970
#	314050
#	315130
#	316132
#	317655
#	318445
#	319282
#	320350
#	321507
#	322585
#	323662
#	324702
#	325640
#	326297
#	327322
#	328327
#	329762
#	330710
#
# Disc length: 4426 seconds
#
# Revision: 0
# Processed by: cddbd v1.5.2PL0 Copyright (c) Steve Scherf et al.
# Submitted via: CDex 1.70beta2
#
DISCID=43114827
DTITLE=Jones Country - Jones Country Recurrent CHC-1187
DYEAR=0000
DGENRE=Country
TTITLE0=Clint Black/When I Said I Do
TTITLE1=Dixie Chicks/Cowboy Take Me Away
TTITLE2=Dixie Chicks/Ready To Run
TTITLE3=Andy Griggs/I'll Go Crazy
TTITLE4=Faith Hill/Breathe
TTITLE5=Alan Jackson/Little Man
TTITLE6=Martina McBride/I Love You
TTITLE7=Rebe McEntire/What Do You Say
TTITLE8=Tim McGraw/My Best Friend
TTITLE9=Tim McGraw/Something Like That
TTITLE10=Montgomery Gentry/Lonely and Gone
TTITLE11=John Michael Montgomery/Home To You
TTITLE12=Brad Paisley/He Didn't Have To Be
TTITLE13=LeAnn Rimes/Big Deal
TTITLE14=George Strait/What Do You Say To That
TTITLE15=Shania Twain/Come On Over
TTITLE16=Steve Wariner/I'm Already Taken
TTITLE17=Mark Wills/She's In Love
TTITLE18=Yankee Gray/All Things Considered
TTITLE19=CHC1187/Track 20
TTITLE20=CHC1187/Track 21
TTITLE21=CHC1187/Track 22
TTITLE22=CHC1187/Track 23
TTITLE23=CHC1187/Track 24
TTITLE24=CHC1187/Track 25
TTITLE25=CHC1187/Track 26
TTITLE26=CHC1187/Track 27
TTITLE27=CHC1187/Track 28
TTITLE28=CHC1187/Track 29
TTITLE29=CHC1187/Track 30
TTITLE30=CHC1187/Track 31
TTITLE31=CHC1187/Track 32
TTITLE32=CHC1187/Track 33
TTITLE33=CHC1187/Track 34
TTITLE34=CHC1187/Track 35
TTITLE35=CHC1187/Track 36
TTITLE36=CHC1187/Track 37
TTITLE37=CHC1187/Track 38
TTITLE38=CHC1187/Track 39
EXTD=YEAR: 0000
EXTT0=
EXTT1=
EXTT2=
EXTT3=
EXTT4=
EXTT5=
EXTT6=
EXTT7=
EXTT8=
EXTT9=
EXTT10=
EXTT11=
EXTT12=
EXTT13=
EXTT14=
EXTT15=
EXTT16=
EXTT17=
EXTT18=
EXTT19=
EXTT20=
EXTT21=
EXTT22=
EXTT23=
EXTT24=
EXTT25=
EXTT26=
EXTT27=
EXTT28=
EXTT29=
EXTT30=
EXTT31=
EXTT32=
EXTT33=
EXTT34=
EXTT35=
EXTT36=
EXTT37=
EXTT38=
PLAYORDER=
